<?xml version="1.0" encoding="utf-8"?><!-- Uploaded to: SVG Repo, www.svgrepo.com, Generator: SVG Repo Mixer Tools -->
<svg fill="#000000" width="800px" height="800px" viewBox="0 0 24 24" id="upload-double-arrow" data-name="Flat Color" xmlns="http://www.w3.org/2000/svg" class="icon flat-color"><path id="secondary" d="M8.29,10.71a1,1,0,0,1,0-1.42l3-3a1,1,0,0,1,1.42,0l3,3a1,1,0,0,1,0,1.42,1,1,0,0,1-1.42,0L12,8.41l-2.29,2.3A1,1,0,0,1,8.29,10.71Zm4.42.58a1,1,0,0,0-1.42,0l-3,3a1,1,0,0,0,1.42,1.42L11,14.41V21a1,1,0,0,0,2,0V14.41l1.29,1.3a1,1,0,0,0,1.42,0,1,1,0,0,0,0-1.42Z" style="fill: rgb(44, 169, 188);"></path><path id="primary" d="M20,15H19a1,1,0,0,1,0-2h1V4H4v9H5a1,1,0,0,1,0,2H4a2,2,0,0,1-2-2V4A2,2,0,0,1,4,2H20a2,2,0,0,1,2,2v9A2,2,0,0,1,20,15Z" style="fill: rgb(0, 0, 0);"></path></svg>