<?xml version="1.0" encoding="utf-8"?><!-- Uploaded to: SVG Repo, www.svgrepo.com, Generator: SVG Repo Mixer Tools -->
<svg fill="#000000" width="800px" height="800px" viewBox="0 0 24 24" id="upload-double-arrow-2" data-name="Flat Color" xmlns="http://www.w3.org/2000/svg" class="icon flat-color"><path id="secondary" d="M8.29,6.71a1,1,0,0,1,0-1.42l3-3a1,1,0,0,1,1.42,0l3,3a1,1,0,0,1,0,1.42,1,1,0,0,1-1.42,0L12,4.41,9.71,6.71A1,1,0,0,1,8.29,6.71Zm4.42.58a1,1,0,0,0-1.42,0l-3,3a1,1,0,0,0,1.42,1.42L11,10.41V17a1,1,0,0,0,2,0V10.41l1.29,1.3a1,1,0,0,0,1.42,0,1,1,0,0,0,0-1.42Z" style="fill: rgb(44, 169, 188);"></path><path id="primary" d="M20,22H4a2,2,0,0,1-2-2V11A2,2,0,0,1,4,9H5a1,1,0,0,1,0,2H4v9H20V11H19a1,1,0,0,1,0-2h1a2,2,0,0,1,2,2v9A2,2,0,0,1,20,22Z" style="fill: rgb(0, 0, 0);"></path></svg>